<svg width="40" height="40" viewBox="0 0 40 40" fill="none" xmlns="http://www.w3.org/2000/svg">
<g clip-path="url(#clip0_3304_5185)">
<path d="M20.2695 40C31.3162 40 40.2695 31.0467 40.2695 20C40.2695 8.95333 31.3162 0 20.2695 0C9.22286 0 0.269531 8.95333 0.269531 20C0.269531 31.0467 9.22286 40 20.2695 40Z" fill="url(#paint0_linear_3304_5185)"/>
<path d="M8.59162 19.8271L22.0627 14.2782C23.3916 13.7005 27.9005 11.8493 27.9005 11.8493C27.9005 11.8493 29.9827 11.0405 29.8072 13.0071C29.7494 13.816 29.2894 16.6493 28.8249 19.7138L27.3805 28.7893C27.3805 28.7893 27.2649 30.1182 26.2827 30.3493C25.3005 30.5805 23.6805 29.5405 23.3916 29.3071C23.1605 29.1338 19.0583 26.5338 17.5538 25.2627C17.1472 24.916 16.6872 24.2205 17.6116 23.4116C19.6938 21.5049 22.1783 19.1338 23.6783 17.6316C24.3738 16.936 25.0649 15.3182 22.1761 17.2849L14.0272 22.7782C14.0272 22.7782 13.1027 23.356 11.3672 22.8338C9.63384 22.316 7.61162 21.6205 7.61162 21.6205C7.61162 21.6205 6.22273 20.7516 8.59162 19.8271Z" fill="white"/>
</g>
<defs>
<linearGradient id="paint0_linear_3304_5185" x1="26.1335" y1="6.32178" x2="16.1333" y2="29.6538" gradientUnits="userSpaceOnUse">
<stop stop-color="#37AEE2"/>
<stop offset="1" stop-color="#1E96C8"/>
</linearGradient>
<clipPath id="clip0_3304_5185">
<rect width="40" height="40" fill="white"/>
</clipPath>
</defs>
</svg>
