<svg width="40" height="40" viewBox="0 0 40 40" fill="none" xmlns="http://www.w3.org/2000/svg">
<g clip-path="url(#clip0_3304_5183)">
<path d="M38.4561 11.9156C37.4583 9.58444 36.0183 7.48222 34.2428 5.71778C32.4628 3.95111 30.345 2.52222 27.9961 1.53333C25.645 0.546667 23.065 0 20.3561 0C17.6472 0 15.065 0.546667 12.7161 1.53333C10.3672 2.52222 8.24944 3.95111 6.46945 5.71778C4.69167 7.48222 3.24944 9.58444 2.25611 11.9156C1.26056 14.2489 0.709445 16.8111 0.709445 19.4978C0.709445 20.3689 0.767222 21.2311 0.882778 22.0867C0.998333 22.9422 1.16944 23.7867 1.39611 24.6156C1.62278 25.4444 1.905 26.2578 2.23833 27.0511C2.57167 27.8444 2.96278 28.6156 3.40278 29.36L2.56056 31.8489L1.71611 34.3356L0.873889 36.8244L0.0294444 39.3133C0.0116667 39.36 0.00277778 39.4067 0.000555556 39.4556C-0.00166667 39.5022 0.00277778 39.5511 0.0138889 39.5956C0.025 39.64 0.0405556 39.6867 0.0627778 39.7289C0.085 39.7711 0.113889 39.8089 0.149444 39.8444C0.173889 39.8711 0.200556 39.8911 0.229444 39.9111C0.258333 39.9311 0.289444 39.9489 0.320556 39.96C0.351667 39.9711 0.385 39.9822 0.418333 39.9889C0.451667 39.9956 0.485 40 0.520556 40C0.533889 40 0.547222 40 0.560556 39.9978C0.573889 39.9978 0.587222 39.9956 0.600556 39.9933C0.613889 39.9911 0.627222 39.9889 0.640556 39.9867C0.653889 39.9822 0.667222 39.98 0.680556 39.9756L3.27389 39.1511L5.86722 38.3267L8.46278 37.5022L11.0561 36.6778C11.7672 37.0578 12.4983 37.3911 13.2517 37.68C14.0028 37.9689 14.7717 38.2111 15.5539 38.4067C16.3361 38.6 17.1294 38.7467 17.9317 38.8467C18.7339 38.9444 19.545 38.9933 20.3561 38.9933C23.065 38.9933 25.645 38.4489 27.9961 37.46C30.345 36.4733 32.4628 35.0422 34.2428 33.2778C36.0206 31.5133 37.4583 29.4133 38.4561 27.08C39.4494 24.7489 40.0006 22.1867 40.0006 19.4978C40.0006 16.8111 39.4494 14.2489 38.4561 11.9156ZM30.5828 24.6867C30.5606 24.9244 30.5228 25.1867 30.4606 25.4511C30.4028 25.7178 30.3206 25.9911 30.2272 26.2556C30.105 26.5956 29.8806 26.92 29.5961 27.2156C29.3117 27.5133 28.9672 27.78 28.6094 28.0089C28.2494 28.2378 27.8761 28.4267 27.5294 28.5644C27.1828 28.7022 26.865 28.7889 26.6228 28.8089L26.5872 28.8111L26.5517 28.8156L26.5139 28.82L26.4761 28.8222C26.4206 28.8289 26.3628 28.8333 26.3028 28.84C26.2428 28.8444 26.1761 28.8511 26.1117 28.8556C26.0472 28.86 25.9761 28.8644 25.9028 28.8667C25.8317 28.8689 25.7561 28.8711 25.6761 28.8711C25.4872 28.8711 25.2583 28.8622 24.9806 28.8311C24.705 28.8022 24.3783 28.7511 23.9872 28.6644C23.5961 28.5778 23.1406 28.4556 22.6072 28.2844C22.0717 28.1133 21.4583 27.8933 20.7539 27.6111C20.0206 27.3178 19.2894 26.94 18.5694 26.4889C17.8494 26.0356 17.1383 25.5044 16.4494 24.9044C15.7583 24.3044 15.0872 23.6378 14.445 22.9089C13.8028 22.1778 13.1872 21.3867 12.6072 20.5378C12.5961 20.5244 12.5872 20.5089 12.5783 20.5C12.5694 20.4867 12.5628 20.4756 12.5561 20.4644C12.5472 20.4533 12.5428 20.4444 12.5383 20.4378C12.5317 20.4289 12.5272 20.4222 12.5228 20.4178C12.3717 20.2178 12.1694 19.9378 11.9517 19.5933C11.7339 19.2511 11.5006 18.8422 11.2872 18.3911C11.0717 17.94 10.8783 17.4444 10.7361 16.9222C10.5939 16.4 10.505 15.8511 10.505 15.2956C10.505 14.6778 10.5806 14.1267 10.7006 13.64C10.8206 13.1533 10.9917 12.7333 11.1828 12.3756C11.3761 12.0156 11.5894 11.7222 11.8006 11.4911C12.0094 11.26 12.2161 11.0867 12.3894 10.9778C12.5539 10.8733 12.7694 10.7844 13.0072 10.7067C13.2428 10.6311 13.5006 10.5667 13.745 10.5156C13.9894 10.4644 14.2228 10.4244 14.4117 10.3978C14.6006 10.3711 14.745 10.3556 14.8139 10.3533C14.8694 10.3511 14.9094 10.3489 14.9361 10.3467C14.965 10.3467 14.9806 10.3444 14.9894 10.3444C14.9983 10.3444 15.005 10.3444 15.0117 10.3444C15.0161 10.3444 15.0228 10.3444 15.0383 10.3444C15.1828 10.3444 15.3161 10.3667 15.4428 10.4089C15.5672 10.4556 15.6828 10.5222 15.7917 10.6133C15.8983 10.7044 15.9983 10.8178 16.0917 10.9556C16.185 11.0933 16.2694 11.26 16.3472 11.4467C16.3806 11.5244 16.4828 11.7711 16.6161 12.0933C16.7517 12.4178 16.9183 12.8244 17.085 13.2244C17.2517 13.6244 17.4161 14.0178 17.5428 14.32C17.6717 14.6244 17.7606 14.8356 17.7783 14.8689C17.7983 14.9111 17.8317 14.9733 17.8628 15.0533C17.8939 15.1333 17.925 15.2311 17.9428 15.3444C17.9628 15.4578 17.9694 15.58 17.9517 15.7178C17.9339 15.8533 17.8939 15.9978 17.8183 16.1511L17.8006 16.1822L17.785 16.2156L17.7694 16.2489L17.7517 16.28C17.7206 16.3444 17.6917 16.4067 17.6606 16.4644C17.6294 16.5267 17.5961 16.5867 17.5583 16.6467C17.5228 16.7089 17.4828 16.7689 17.4383 16.8333C17.3917 16.8956 17.3406 16.9644 17.2806 17.0333C17.2606 17.0556 17.2406 17.08 17.2228 17.1C17.2006 17.1244 17.1806 17.1489 17.1606 17.1733C17.1406 17.1956 17.1206 17.22 17.1028 17.2422C17.085 17.2644 17.0628 17.2889 17.0428 17.3133C17.0006 17.3622 16.9606 17.4133 16.9183 17.4622C16.8761 17.5111 16.8339 17.5622 16.7917 17.6111C16.7494 17.66 16.7094 17.7067 16.6672 17.7511C16.625 17.7956 16.585 17.8378 16.545 17.8778C16.5317 17.8911 16.5161 17.9089 16.4983 17.9244C16.4806 17.9444 16.4628 17.9644 16.445 17.9844C16.4272 18.0022 16.4117 18.02 16.3983 18.0378C16.3872 18.0533 16.3783 18.0689 16.3761 18.08C16.3761 18.08 16.3761 18.0822 16.3761 18.0867C16.3761 18.0911 16.3783 18.0978 16.3806 18.1089C16.3828 18.1178 16.3872 18.1311 16.3961 18.1444C16.4028 18.16 16.4117 18.1778 16.4228 18.1956C16.505 18.3356 16.7139 18.64 17.0294 19.0467C17.3472 19.4533 17.7717 19.9533 18.285 20.4822C18.7983 21.0089 19.4006 21.5622 20.0672 22.0689C20.7339 22.5756 21.4694 23.0333 22.2517 23.3733C22.2872 23.3889 22.3383 23.4111 22.3983 23.4356C22.4606 23.4622 22.5339 23.4889 22.5983 23.5178C22.665 23.5444 22.7294 23.5667 22.7761 23.5867C22.8228 23.6044 22.8583 23.6178 22.8628 23.6178C22.8717 23.6178 22.8806 23.6133 22.8894 23.6089C22.8983 23.6044 22.9072 23.5956 22.9206 23.5867C22.9294 23.5778 22.9383 23.5689 22.9517 23.5578C22.9606 23.5467 22.9694 23.5378 22.9783 23.5267C23.0472 23.4489 23.1539 23.3267 23.2783 23.18C23.405 23.0356 23.5517 22.8622 23.6961 22.6867C23.8428 22.5133 23.9894 22.3333 24.1161 22.1711C24.2428 22.0089 24.3517 21.8622 24.425 21.7556C24.4894 21.6578 24.5606 21.5733 24.6339 21.5022C24.7072 21.4289 24.785 21.3667 24.8672 21.32C24.9494 21.2711 25.0339 21.2333 25.125 21.2089C25.2139 21.1844 25.3094 21.1711 25.4094 21.1711C25.4672 21.1711 25.5272 21.1756 25.5872 21.1844C25.6428 21.1933 25.7028 21.2044 25.7583 21.22C25.8139 21.2333 25.8694 21.2511 25.925 21.2667C25.9783 21.2844 26.0339 21.3044 26.085 21.32C26.2161 21.3667 26.4961 21.4911 26.8428 21.6533C27.1894 21.8133 27.605 22.0111 28.0072 22.2067C28.4094 22.4 28.7961 22.5889 29.0872 22.7311C29.3806 22.8733 29.5783 22.9689 29.5961 22.9778C29.6917 23.0244 29.7806 23.0689 29.8672 23.1133C29.9494 23.1578 30.0294 23.2 30.1006 23.2489C30.1739 23.2956 30.2406 23.3467 30.3006 23.4044C30.3561 23.46 30.4094 23.5244 30.4517 23.5956C30.5161 23.7022 30.5583 23.8533 30.5783 24.04C30.6028 24.2289 30.6028 24.4489 30.5828 24.6867Z" fill="#43AD45"/>
</g>
<defs>
<clipPath id="clip0_3304_5183">
<rect width="40" height="40" fill="white"/>
</clipPath>
</defs>
</svg>
